
<svg width="16px" height="17px" viewBox="12 12 16 17" version="1.1" xmlns="http://www.w3.org/2000/svg" xmlns:xlink="http://www.w3.org/1999/xlink">
    <!-- Generator: Sketch 40.3 (33839) - http://www.bohemiancoding.com/sketch -->
    <desc>Created with Sketch.</desc>
    <defs></defs>
    <g id="icon/-ico_search_view" stroke="none" stroke-width="1" fill="none" fill-rule="evenodd" transform="translate(12.000000, 12.000000)">
        <g id="Layer_1" fill="#FFFFFF">
            <path d="M6.31578947,12.6315789 C9.80390368,12.6315789 12.6315789,9.80390368 12.6315789,6.31578947 C12.6315789,2.82767526 9.80390368,0 6.31578947,0 C2.82767526,0 0,2.82767526 0,6.31578947 C0,9.80390368 2.82767526,12.6315789 6.31578947,12.6315789 L6.31578947,12.6315789 Z M6.31578947,11.1692502 C3.63529712,11.1692502 1.46232872,8.99628183 1.46232872,6.31578947 C1.46232872,3.63529712 3.63529712,1.46232872 6.31578947,1.46232872 C8.99628183,1.46232872 11.1692502,3.63529712 11.1692502,6.31578947 C11.1692502,8.99628183 8.99628183,11.1692502 6.31578947,11.1692502 L6.31578947,11.1692502 Z" id="Oval"></path>
            <path d="M9.3170529,11.8479197 L13.8889224,16.4197892 C14.3116596,16.8425264 14.997052,16.8425264 15.4197892,16.4197892 C15.8425264,15.997052 15.8425264,15.3116596 15.4197892,14.8889224 L10.8479197,10.3170529 C10.4251825,9.8943157 9.73979009,9.8943157 9.3170529,10.3170529 C8.8943157,10.7397901 8.8943157,11.4251825 9.3170529,11.8479197 L9.3170529,11.8479197 Z" id="Shape"></path>
        </g>
    </g>
</svg>
